<svg width="18" height="16" viewBox="0 0 18 16" fill="none" xmlns="http://www.w3.org/2000/svg">
<g clip-path="url(#clip0_1188_2575)">
<path d="M14.7065 8.46922C14.8419 8.3442 14.918 8.17466 14.918 7.99789C14.918 7.82111 14.8419 7.65157 14.7065 7.52656L10.6209 3.75522C10.5543 3.69155 10.4746 3.64076 10.3865 3.60582C10.2984 3.57088 10.2036 3.55249 10.1077 3.55172C10.0118 3.55095 9.91669 3.56782 9.82793 3.60134C9.73918 3.63486 9.65854 3.68436 9.59073 3.74696C9.52291 3.80955 9.46929 3.88399 9.43297 3.96592C9.39666 4.04785 9.37839 4.13564 9.37922 4.22416C9.38005 4.31268 9.39998 4.40016 9.43783 4.48149C9.47568 4.56283 9.5307 4.63639 9.59968 4.69789L12.4525 7.33122L2.88807 7.33122C2.69652 7.33122 2.51282 7.40146 2.37738 7.52648C2.24193 7.65151 2.16584 7.82108 2.16584 7.99789C2.16584 8.1747 2.24193 8.34427 2.37738 8.46929C2.51282 8.59432 2.69652 8.66456 2.88807 8.66456L12.4525 8.66456L9.59968 11.2979C9.46812 11.4236 9.39532 11.592 9.39697 11.7668C9.39861 11.9416 9.47457 12.1088 9.60848 12.2324C9.74238 12.356 9.92352 12.4262 10.1129 12.4277C10.3023 12.4292 10.4847 12.362 10.6209 12.2406L14.7065 8.46922Z" fill="#1E3A59"/>
</g>
<defs>
<clipPath id="clip0_1188_2575">
<rect width="16" height="17.3333" fill="white" transform="translate(17.332) rotate(90)"/>
</clipPath>
</defs>
</svg>
