<svg width="32" height="32" fill="none" xmlns="http://www.w3.org/2000/svg"><g clip-path="url(#a)"><path d="M27.093 5.867c-2.026-.96-4.266-1.6-6.506-2.027h-.107a12.73 12.73 0 0 0-.853 1.707 28.333 28.333 0 0 0-7.36 0 12.742 12.742 0 0 0-.854-1.707s-.106-.107-.106 0c-2.24.427-4.48 1.067-6.507 2.027C.64 12.053-.533 18.133.107 24.107v.106c2.773 2.027 5.44 3.2 8 4.054h.106c.64-.854 1.174-1.707 1.6-2.667 0-.107 0-.107-.106-.107a17.35 17.35 0 0 1-2.454-1.173c-.106 0-.106-.107 0-.213.214-.107.32-.214.534-.427h.106c5.227 2.347 10.88 2.347 16.107 0h.107c.213.107.32.213.533.427.107 0 .107.106 0 .213-.747.427-1.6.853-2.453 1.173-.107 0-.107.107-.107.107.533.96 1.067 1.813 1.6 2.667h.107c2.666-.854 5.226-2.027 8-4.054v-.106c.746-6.934-1.067-12.907-4.694-18.24zM10.667 20.48c-1.6 0-2.88-1.493-2.88-3.2 0-1.813 1.28-3.2 2.88-3.2 1.6 0 2.88 1.493 2.88 3.2s-1.28 3.2-2.88 3.2zm10.666 0c-1.6 0-2.88-1.493-2.88-3.2 0-1.813 1.28-3.2 2.88-3.2 1.6 0 2.88 1.493 2.88 3.2s-1.28 3.2-2.88 3.2z" fill="#536471"/></g><defs><clipPath id="a"><path fill="#fff" d="M0 0h32v32H0z"/></clipPath></defs></svg>