<svg width="32" height="32" fill="none" xmlns="http://www.w3.org/2000/svg"><path d="m17.99 5.111 10.43 5.208a.66.66 0 0 1 .013 1.175l-13.547 7.14a2.652 2.652 0 0 1-2.42.026L3.96 14.413A1.602 1.602 0 0 0 1.766 15.9c0 .92.52 1.76 1.343 2.171l8.527 4.257a2.863 2.863 0 0 1 2.048-.857c.778 0 1.484.31 2.001.812l10.621-5.597A2.869 2.869 0 1 1 32 16.182a2.867 2.867 0 0 1-2.869 2.865 2.862 2.862 0 0 1-1.994-.805l-10.627 5.6a2.867 2.867 0 0 1-2.827 3.358 2.867 2.867 0 0 1-2.836-3.295l-8.651-4.319A3.966 3.966 0 0 1 0 16.04v-.837c0-1.144.634-2.195 1.648-2.729l13.92-7.335a2.652 2.652 0 0 1 2.421-.027zm-4.306 20.326a1.103 1.103 0 1 0 .001-2.205 1.103 1.103 0 0 0-.002 2.205zm16.55-9.255a1.103 1.103 0 1 1-2.205-.001 1.103 1.103 0 0 1 2.206.001z" fill="#536471"/></svg>