<svg class="icon" viewBox="0 0 1024 1024" xmlns="http://www.w3.org/2000/svg" width="256" height="256"><path d="m172.4 775.4.7.7c6.7 6.4 16.2 9.7 26 8l229.5-40.5c6.3-1.1 11.8-4.2 16-8.4l.1.1L857 322.7c35.1-35.1 35.1-92.2 0-127.3L752.4 90.7c-17-17-39.6-26.3-63.6-26.3s-46.7 9.3-63.6 26.3L212.8 503.3l.1.1c-4.2 4.2-7.3 9.7-8.4 16L164 749.1c-1.6 9.9 1.8 19.6 8.4 26.3zm377.7-524.8 147.1 147.2-288 288.3-178.6 31.5 31.5-178.7 288-288.3zm117.4-117.5c5.6-5.6 13.1-8.7 21.2-8.7s15.6 3.1 21.2 8.7l104.7 104.7c11.7 11.7 11.7 30.8 0 42.5l-74.9 75-147.1-147.2 74.9-75zM929 900.4H93c-16.5 0-30 13.5-30 30s13.5 30 30 30h836c16.5 0 30-13.5 30-30s-13.5-30-30-30z" fill="#1d9bf0"/></svg>
