<svg width="42" height="41" fill="none" xmlns="http://www.w3.org/2000/svg"><defs><clipPath id="a"><path transform="translate(0 -1)" fill="#fff" fill-opacity="0" d="M0 0h42v42H0z"/></clipPath></defs><path fill="#FFF" d="M0-1h42v42H0z"/><g clip-path="url(#a)"><path d="M21 0C10.06 0 1 9.06 1 20c0 10.93 9.06 20 20 20 10.93 0 20-9.07 20-20C41 9.06 31.93 0 21 0zm8.53 25.6c.8.8.8 1.86 0 2.66s-1.87.8-2.67 0l-5.6-5.6-5.86 5.87c-.8.8-2.14.8-2.94 0-.8-.8-.8-2.13 0-2.93l5.87-5.87-5.6-5.6c-.8-.8-.8-1.87 0-2.67.8-.8 1.87-.8 2.67 0l5.6 5.6 5.86-5.86c.8-.8 2.14-.8 2.94 0 .8.8.8 2.13 0 2.93L23.93 20l5.6 5.6z" fill="#EA3943"/></g></svg>