<svg width="74.000000" height="74.000000" viewBox="0 0 74 74" fill="none" xmlns="http://www.w3.org/2000/svg" xmlns:xlink="http://www.w3.org/1999/xlink">
	<desc>
			Created with Pixso.
	</desc>
	<defs>
		<clipPath id="clip9_1558">
			<rect id="svg" width="74.000000" height="74.000000" fill="white" fill-opacity="0"/>
		</clipPath>
	</defs>
	<g clip-path="url(#clip9_1558)">
		<path id="path" d="M62.63 55.07L61.15 42.73C61.14 42.64 61.1 42.55 61.04 42.48C60.98 42.41 60.91 42.36 60.82 42.33C60.73 42.3 60.64 42.29 60.54 42.31C60.45 42.33 60.37 42.37 60.31 42.44L56.63 46.14L39.82 29.33C39.73 29.24 39.62 29.17 39.5 29.13C39.38 29.08 39.25 29.06 39.12 29.06C38.99 29.06 38.87 29.08 38.75 29.13C38.63 29.17 38.52 29.24 38.42 29.33L32.13 35.62L14.98 18.5C14.93 18.45 14.88 18.42 14.82 18.39C14.76 18.37 14.7 18.36 14.64 18.36C14.57 18.36 14.51 18.37 14.45 18.39C14.39 18.42 14.34 18.45 14.29 18.5L11.49 21.3C11.45 21.34 11.41 21.4 11.39 21.46C11.37 21.51 11.36 21.58 11.36 21.64C11.36 21.7 11.37 21.77 11.39 21.82C11.41 21.88 11.45 21.94 11.49 21.98L31.42 41.94C31.51 42.03 31.62 42.1 31.74 42.16C31.86 42.21 31.99 42.23 32.12 42.23C32.25 42.23 32.38 42.21 32.5 42.16C32.62 42.1 32.73 42.03 32.82 41.94L39.14 35.62L53.14 49.63L49.47 53.3C49.4 53.37 49.36 53.45 49.34 53.54C49.32 53.63 49.33 53.72 49.36 53.81C49.39 53.9 49.44 53.98 49.51 54.04C49.58 54.1 49.67 54.13 49.76 54.15L62.08 55.63C62.11 55.63 62.15 55.64 62.19 55.63C62.23 55.63 62.27 55.63 62.3 55.61C62.34 55.6 62.38 55.59 62.41 55.57C62.44 55.55 62.47 55.52 62.5 55.5C62.53 55.47 62.55 55.44 62.57 55.41C62.59 55.37 62.61 55.34 62.62 55.3C62.63 55.26 62.64 55.23 62.64 55.19C62.64 55.15 62.64 55.11 62.63 55.07Z" fill="#EA3943" fill-opacity="1.000000" fill-rule="nonzero"/>
	</g>
</svg>
