<svg width="74" height="74" fill="none" xmlns="http://www.w3.org/2000/svg"><defs><clipPath id="a"><path fill="#fff" fill-opacity="0" d="M0 0h74v74H0z"/></clipPath></defs><g clip-path="url(#a)"><path d="m62.63 55.07-1.48-12.34a.482.482 0 0 0-.33-.4.529.529 0 0 0-.28-.02.41.41 0 0 0-.23.13l-3.68 3.7-16.81-16.81a.825.825 0 0 0-.32-.2.986.986 0 0 0-.38-.07c-.13 0-.25.02-.37.07-.12.04-.23.11-.33.2l-6.29 6.29L14.98 18.5a.572.572 0 0 0-.16-.11.566.566 0 0 0-.37 0c-.06.03-.11.06-.16.11l-2.8 2.8c-.04.04-.08.1-.1.16-.02.05-.03.12-.03.18s.01.13.03.18c.02.06.06.12.1.16l19.93 19.96c.09.09.2.16.32.22.12.05.25.07.38.07s.26-.02.38-.07c.12-.06.23-.13.32-.22l6.32-6.32 14 14.01-3.67 3.67c-.07.07-.11.15-.13.24a.5.5 0 0 0 .02.27c.03.09.08.17.15.23.07.06.16.09.25.11l12.32 1.48c.03 0 .07.01.11 0 .04 0 .08 0 .11-.02.04-.01.08-.02.11-.04s.06-.05.09-.07c.03-.03.05-.06.07-.09.02-.04.04-.07.05-.11.01-.04.02-.07.02-.11 0-.04 0-.08-.01-.12z" fill="#F44144"/></g></svg>
