<svg width="32" height="32" fill="none" xmlns="http://www.w3.org/2000/svg"><path d="M26.736 6.777c1.113-2.068-.159-4.77-.159-4.77-2.862 0-4.93 1.907-4.93 1.907-1.113-.636-4.77-.636-4.77-.636s-3.658 0-4.77.636c0 0-2.068-1.908-4.93-1.908 0 0-1.273 2.703-.16 4.77 0 0-2.544 2.386-1.59 7.475.897 4.782 5.089 6.043 7.792 6.043 0 0-1.113.954-.954 2.544 0 0-1.59.954-3.18.318-1.59-.636-2.386-2.226-2.386-2.226s-1.59-2.068-3.18-1.273c0 0-.477.478 1.272 1.273 0 0 1.272 1.908 1.75 3.021.476 1.113 3.02 2.067 5.565 1.431v3.658s0 .318-.636.477c-.636.159-.636.477-.318.477h11.45c.318 0 .318-.318-.319-.477-.636-.16-.636-.477-.636-.477v-3.658s.014-1.907 0-2.544c-.034-1.598-1.113-2.544-1.113-2.544 2.704 0 6.896-1.261 7.792-6.043.954-5.089-1.59-7.474-1.59-7.474z" fill="#536471"/></svg>