<svg width="573" height="851" viewBox="0 0 573 851" fill="none" xmlns="http://www.w3.org/2000/svg">
<path fill-rule="evenodd" clip-rule="evenodd" d="M123.77 0C371.622 0 572.539 190.499 572.539 425.5C572.539 660.501 371.622 851 123.77 851C-124.083 851 -325 660.501 -325 425.5C-325 190.499 -124.083 0 123.77 0ZM123.77 55.1565C-91.9478 55.1565 -266.827 220.968 -266.827 425.5C-266.827 630.032 -91.9478 795.843 123.77 795.843C339.487 795.843 514.366 630.032 514.366 425.5C514.366 220.968 339.487 55.1565 123.77 55.1565Z" fill="white" fill-opacity="0.1"/>
<path fill-rule="evenodd" clip-rule="evenodd" d="M123.728 195.021C257.98 195.021 366.811 298.209 366.811 425.5C366.811 552.791 257.98 655.979 123.728 655.979C-10.5245 655.979 -119.355 552.791 -119.355 425.5C-119.355 298.209 -10.5245 195.021 123.728 195.021ZM124.766 252.146C23.2213 252.146 -59.106 330.205 -59.106 426.485C-59.106 522.764 23.2213 600.823 124.766 600.823C226.311 600.823 308.639 522.773 308.639 426.485C308.639 330.205 226.32 252.146 124.766 252.146Z" fill="white" fill-opacity="0.1"/>
<path d="M317.031 228.509C339.979 228.509 358.582 210.871 358.582 189.113C358.582 167.355 339.979 149.717 317.031 149.717C294.083 149.717 275.48 167.355 275.48 189.113C275.48 210.871 294.083 228.509 317.031 228.509Z" fill="white" fill-opacity="0.1"/>
</svg>
