<?xml version="1.0" encoding="UTF-8"?>
<svg width="520px" height="150px" viewBox="0 0 520 150" version="1.1" xmlns="http://www.w3.org/2000/svg" xmlns:xlink="http://www.w3.org/1999/xlink">
    <title>logo3</title>
    <g id="logo3" stroke="none" stroke-width="1" fill="none" fill-rule="evenodd">
        <g id="Insights" transform="translate(141.000000, 18.000000)" fill="#0F1419" fill-rule="nonzero">
            <path d="M1.28205128,101 C0.427350427,101 0,100.519048 0,99.5571429 L0,1.44285714 C0,0.480952381 0.427350427,0 1.28205128,0 L3.71794872,0 C4.57264957,0 5,0.480952381 5,1.44285714 L5,99.5571429 C5,100.519048 4.57264957,101 3.71794872,101 L1.28205128,101 Z" id="路径"></path>
            <path d="M48.8705036,27 C54.6258993,27 59.0863309,28.9626719 62.2517986,32.8880157 C65.4172662,36.8133595 67,42.2652259 67,49.2436149 L67,99.546169 C67,100.51539 66.5203837,101 65.5611511,101 L62.8273381,101 C61.8681055,101 61.3884892,100.51539 61.3884892,99.546169 L61.3884892,49.8251473 C61.3884892,44.2036673 60.1414868,39.8421742 57.647482,36.740668 C55.1534772,33.6391618 51.7002398,32.0884086 47.2877698,32.0884086 C42.7793765,32.0884086 39.206235,33.7603143 36.5683453,37.1041257 C33.9304556,40.4479371 32.6115108,45.0275049 32.6115108,50.8428291 L32.6115108,99.546169 C32.6115108,100.51539 32.1318945,101 31.1726619,101 L28.4388489,101 C27.4796163,101 27,100.51539 27,99.546169 L27,29.4715128 C27,28.5022921 27.4796163,28.0176817 28.4388489,28.0176817 L31.1726619,28.0176817 C32.1318945,28.0176817 32.6115108,28.5022921 32.6115108,29.4715128 L32.6115108,35.8683694 C32.6115108,36.1591356 32.6834532,36.3045187 32.8273381,36.3045187 C32.971223,36.3045187 33.1390887,36.2075966 33.3309353,36.0137525 C36.5923261,30.0045842 41.7721823,27 48.8705036,27 Z" id="路径"></path>
            <path d="M104.147059,102 C98.0686275,102 93.1911765,100.331373 89.5147059,96.9941176 C85.8382353,93.6568627 84,89.3764706 84,84.1529412 L84,83.427451 C84,82.4601307 84.4901961,81.9764706 85.4705882,81.9764706 L88.1176471,81.9764706 C89.0980392,81.9764706 89.5882353,82.4601307 89.5882353,83.427451 L89.5882353,84.1529412 C89.5882353,87.8287582 90.9117647,90.924183 93.5588235,93.4392157 C96.2058824,95.9542484 99.7352941,97.2117647 104.147059,97.2117647 C108.460784,97.2117647 111.892157,95.9300654 114.441176,93.3666667 C116.990196,90.803268 118.264706,87.4418301 118.264706,83.2823529 C118.264706,80.2836601 117.553922,77.7928105 116.132353,75.8098039 C114.710784,73.8267974 112.946078,72.230719 110.838235,71.0215686 C108.730392,69.8124183 105.862745,68.4823529 102.235294,67.0313725 C98.5098039,65.4836601 95.4215686,63.9843137 92.9705882,62.5333333 C90.5196078,61.0823529 88.4607843,59.0993464 86.7941176,56.5843137 C85.127451,54.069281 84.2941176,50.8287582 84.2941176,46.8627451 C84.2941176,41.0588235 86.0833333,36.4640523 89.6617647,33.0784314 C93.2401961,29.6928105 97.9705882,28 103.852941,28 C109.833333,28 114.612745,29.7411765 118.191176,33.2235294 C121.769608,36.7058824 123.558824,41.2039216 123.558824,46.7176471 L123.558824,47.1529412 C123.558824,48.1202614 123.068627,48.6039216 122.088235,48.6039216 L119.588235,48.6039216 C118.607843,48.6039216 118.117647,48.1202614 118.117647,47.1529412 L118.117647,46.572549 C118.117647,42.703268 116.794118,39.4385621 114.147059,36.7784314 C111.5,34.1183007 108.068627,32.7882353 103.852941,32.7882353 C99.6372549,32.7882353 96.254902,34.0941176 93.7058824,36.7058824 C91.1568627,39.3176471 89.8823529,42.654902 89.8823529,46.7176471 C89.8823529,49.5228758 90.5441176,51.8686275 91.8676471,53.754902 C93.1911765,55.6411765 94.8333333,57.1647059 96.7941176,58.3254902 C98.754902,59.4862745 101.45098,60.7921569 104.882353,62.2431373 C109,63.8875817 112.308824,65.4352941 114.808824,66.8862745 C117.308824,68.3372549 119.465686,70.3928105 121.279412,73.0529412 C123.093137,75.7130719 124,79.0745098 124,83.1372549 C124,88.8444444 122.210784,93.4150327 118.632353,96.8490196 C115.053922,100.283007 110.22549,102 104.147059,102 Z" id="路径"></path>
            <path d="M141.538462,101 C140.512821,101 140,100.521912 140,99.5657371 L140,30.4342629 C140,29.4780876 140.512821,29 141.538462,29 L144.461538,29 C145.487179,29 146,29.4780876 146,30.4342629 L146,99.5657371 C146,100.521912 145.487179,101 144.461538,101 L141.538462,101 Z" id="形状"></path>
            <path d="M201.225352,29.6075949 C201.225352,28.641819 201.706573,28.1589311 202.669014,28.1589311 L205.556338,28.1589311 C206.518779,28.1589311 207,28.641819 207,29.6075949 L207,100.447257 C207,120.149086 198.338028,130 181.014085,130 C179.570423,130 178.848592,129.517112 178.848592,128.551336 L178.848592,126.233474 C178.848592,125.267698 179.474178,124.78481 180.725352,124.78481 C187.943662,124.78481 193.164906,122.708392 196.389085,118.555556 C199.613263,114.402719 201.225352,108.270042 201.225352,100.157525 L201.225352,93.6385373 C201.225352,93.3488045 201.153169,93.2039381 201.008803,93.2039381 C200.864437,93.2039381 200.696009,93.3005157 200.503521,93.4936709 C198.963615,96.1978434 196.894366,98.2501172 194.295775,99.6504923 C191.697183,101.050867 188.761737,101.751055 185.489437,101.751055 C179.618545,101.751055 174.902582,99.7712143 171.341549,95.8115331 C167.780516,91.8518519 166,86.7815284 166,80.6005626 L166,48.2953586 C166,42.0178153 167.780516,36.899203 171.341549,32.9395218 C174.902582,28.9798406 179.618545,27 185.489437,27 C188.761737,27 191.697183,27.7001875 194.295775,29.1005626 C196.894366,30.5009376 198.963615,32.5532114 200.503521,35.257384 C200.696009,35.4505391 200.864437,35.5471167 201.008803,35.5471167 C201.153169,35.5471167 201.225352,35.4022504 201.225352,35.1125176 L201.225352,29.6075949 Z M186.788732,96.6807314 C191.023474,96.6807314 194.488263,95.1596343 197.183099,92.1174402 C199.877934,89.0752461 201.225352,85.1397093 201.225352,80.3108298 L201.225352,48.440225 C201.225352,43.6113455 199.877934,39.6758087 197.183099,36.6336146 C194.488263,33.5914205 191.023474,32.0703235 186.788732,32.0703235 C182.361502,32.0703235 178.728286,33.5914205 175.889085,36.6336146 C173.049883,39.6758087 171.630282,43.6113455 171.630282,48.440225 L171.630282,80.3108298 C171.630282,85.1397093 173.049883,89.0752461 175.889085,92.1174402 C178.728286,95.1596343 182.361502,96.6807314 186.788732,96.6807314 Z" id="形状"></path>
            <path d="M247.870504,27.5585714 C253.625899,27.5585714 258.086331,29.5064286 261.251799,33.4021429 C264.417266,37.2978571 266,42.7085714 266,49.6342857 L266,99.5571429 C266,100.519048 265.520384,101 264.561151,101 L261.827338,101 C260.868106,101 260.388489,100.519048 260.388489,99.5571429 L260.388489,50.2114286 C260.388489,44.632381 259.141487,40.3038095 256.647482,37.2257143 C254.153477,34.147619 250.70024,32.6085714 246.28777,32.6085714 C241.779376,32.6085714 238.206235,34.2678571 235.568345,37.5864286 C232.930456,40.905 231.611511,45.45 231.611511,51.2214286 L231.611511,99.5571429 C231.611511,100.519048 231.131894,101 230.172662,101 L227.438849,101 C226.479616,101 226,100.519048 226,99.5571429 L226,1.44285714 C226,0.480952381 226.479616,0 227.438849,0 L230.172662,0 C231.131894,0 231.611511,0.480952381 231.611511,1.44285714 L231.611511,36.36 C231.611511,36.6485714 231.683453,36.7928571 231.827338,36.7928571 C231.971223,36.7928571 232.139089,36.6966667 232.330935,36.5042857 C235.592326,30.5404762 240.772182,27.5585714 247.870504,27.5585714 Z" id="路径"></path>
            <path d="M307,32.2101911 C307,33.1656051 306.528796,33.6433121 305.586387,33.6433121 L293.853403,33.6433121 C293.47644,33.6433121 293.287958,33.8343949 293.287958,34.2165605 L293.287958,82.3694268 C293.287958,87.433121 294.136126,90.9681529 295.832461,92.9745223 C297.528796,94.9808917 300.21466,95.9840764 303.890052,95.9840764 L305.445026,95.9840764 C306.387435,95.9840764 306.858639,96.4617834 306.858639,97.4171975 L306.858639,99.566879 C306.858639,100.522293 306.387435,101 305.445026,101 L303.041885,101 C298.04712,101 294.253927,99.7579618 291.662304,97.2738854 C289.070681,94.7898089 287.774869,90.156051 287.774869,83.3726115 L287.774869,34.2165605 C287.774869,33.8343949 287.586387,33.6433121 287.209424,33.6433121 L281.413613,33.6433121 C280.471204,33.6433121 280,33.1656051 280,32.2101911 L280,30.4904459 C280,29.5350318 280.471204,29.0573248 281.413613,29.0573248 L287.209424,29.0573248 C287.586387,29.0573248 287.774869,28.866242 287.774869,28.4840764 L287.774869,12.433121 C287.774869,11.477707 288.246073,11 289.188482,11 L291.874346,11 C292.816754,11 293.287958,11.477707 293.287958,12.433121 L293.287958,28.4840764 C293.287958,28.866242 293.47644,29.0573248 293.853403,29.0573248 L305.586387,29.0573248 C306.528796,29.0573248 307,29.5350318 307,30.4904459 L307,32.2101911 Z" id="路径"></path>
            <path d="M338.147059,102 C332.068627,102 327.191176,100.331373 323.514706,96.9941176 C319.838235,93.6568627 318,89.3764706 318,84.1529412 L318,83.427451 C318,82.4601307 318.490196,81.9764706 319.470588,81.9764706 L322.117647,81.9764706 C323.098039,81.9764706 323.588235,82.4601307 323.588235,83.427451 L323.588235,84.1529412 C323.588235,87.8287582 324.911765,90.924183 327.558824,93.4392157 C330.205882,95.9542484 333.735294,97.2117647 338.147059,97.2117647 C342.460784,97.2117647 345.892157,95.9300654 348.441176,93.3666667 C350.990196,90.803268 352.264706,87.4418301 352.264706,83.2823529 C352.264706,80.2836601 351.553922,77.7928105 350.132353,75.8098039 C348.710784,73.8267974 346.946078,72.230719 344.838235,71.0215686 C342.730392,69.8124183 339.862745,68.4823529 336.235294,67.0313725 C332.509804,65.4836601 329.421569,63.9843137 326.970588,62.5333333 C324.519608,61.0823529 322.460784,59.0993464 320.794118,56.5843137 C319.127451,54.069281 318.294118,50.8287582 318.294118,46.8627451 C318.294118,41.0588235 320.083333,36.4640523 323.661765,33.0784314 C327.240196,29.6928105 331.970588,28 337.852941,28 C343.833333,28 348.612745,29.7411765 352.191176,33.2235294 C355.769608,36.7058824 357.558824,41.2039216 357.558824,46.7176471 L357.558824,47.1529412 C357.558824,48.1202614 357.068627,48.6039216 356.088235,48.6039216 L353.588235,48.6039216 C352.607843,48.6039216 352.117647,48.1202614 352.117647,47.1529412 L352.117647,46.572549 C352.117647,42.703268 350.794118,39.4385621 348.147059,36.7784314 C345.5,34.1183007 342.068627,32.7882353 337.852941,32.7882353 C333.637255,32.7882353 330.254902,34.0941176 327.705882,36.7058824 C325.156863,39.3176471 323.882353,42.654902 323.882353,46.7176471 C323.882353,49.5228758 324.544118,51.8686275 325.867647,53.754902 C327.191176,55.6411765 328.833333,57.1647059 330.794118,58.3254902 C332.754902,59.4862745 335.45098,60.7921569 338.882353,62.2431373 C343,63.8875817 346.308824,65.4352941 348.808824,66.8862745 C351.308824,68.3372549 353.465686,70.3928105 355.279412,73.0529412 C357.093137,75.7130719 358,79.0745098 358,83.1372549 C358,88.8444444 356.210784,93.4150327 352.632353,96.8490196 C349.053922,100.283007 344.22549,102 338.147059,102 Z" id="路径"></path>
        </g>
        <g id="编组" transform="translate(16.000000, 18.000000)" fill="#0F1419">
            <path d="M51,0 C79.1665222,0 102,22.8334778 102,51 C102,79.1665222 79.1665222,102 51,102 C22.8334778,102 0,79.1665222 0,51 C0,22.8334778 22.8334778,0 51,0 Z M51,6.61111111 C26.4846936,6.61111111 6.61111111,26.4846936 6.61111111,51 C6.61111111,75.5153064 26.4846936,95.3888889 51,95.3888889 C75.5153064,95.3888889 95.3888889,75.5153064 95.3888889,51 C95.3888889,26.4846936 75.5153064,6.61111111 51,6.61111111 Z" id="形状结合"></path>
            <path d="M51,23.375 C66.2568662,23.375 78.625,35.7431338 78.625,51 C78.625,66.2568662 66.2568662,78.625 51,78.625 C35.7431338,78.625 23.375,66.2568662 23.375,51 C23.375,35.7431338 35.7431338,23.375 51,23.375 Z M51.1180556,30.2222222 C39.5776055,30.2222222 30.2222222,39.5776055 30.2222222,51.1180556 C30.2222222,62.6585056 39.5776055,72.0138889 51.1180556,72.0138889 C62.6585056,72.0138889 72.0138889,62.6585056 72.0138889,51.1180556 C72.0138889,39.5776055 62.6585056,30.2222222 51.1180556,30.2222222 Z" id="形状结合"></path>
            <circle id="椭圆形" cx="72.9583333" cy="22.6666667" r="4.72222222"></circle>
        </g>
    </g>
</svg>