<svg width="102" height="102" xmlns="http://www.w3.org/2000/svg"><g fill="#0F1419" fill-rule="evenodd"><path d="M51 0c28.167 0 51 22.833 51 51s-22.833 51-51 51S0 79.167 0 51 22.833 0 51 0zm0 6.611C26.485 6.611 6.611 26.485 6.611 51c0 24.515 19.874 44.389 44.389 44.389 24.515 0 44.389-19.874 44.389-44.389C95.389 26.485 75.515 6.611 51 6.611z"/><path d="M51 23.375c15.257 0 27.625 12.368 27.625 27.625S66.257 78.625 51 78.625 23.375 66.257 23.375 51 35.743 23.375 51 23.375zm.118 6.847c-11.54 0-20.896 9.356-20.896 20.896 0 11.54 9.356 20.896 20.896 20.896 11.54 0 20.896-9.355 20.896-20.896 0-11.54-9.355-20.896-20.896-20.896z"/><circle cx="72.958" cy="22.667" r="4.722"/></g></svg>