<svg width="520" height="150" xmlns="http://www.w3.org/2000/svg"><g fill="#0F1419" fill-rule="evenodd"><g fill-rule="nonzero"><path d="M142.282 119c-.855 0-1.282-.481-1.282-1.443V19.443c0-.962.427-1.443 1.282-1.443h2.436c.855 0 1.282.481 1.282 1.443v98.114c0 .962-.427 1.443-1.282 1.443h-2.436zM189.87 45c5.756 0 10.216 1.963 13.382 5.888 3.165 3.925 4.748 9.377 4.748 16.356v50.302c0 .97-.48 1.454-1.439 1.454h-2.734c-.959 0-1.439-.485-1.439-1.454v-49.72c0-5.622-1.247-9.984-3.74-13.085-2.495-3.102-5.948-4.653-10.36-4.653-4.509 0-8.082 1.672-10.72 5.016-2.638 3.344-3.956 7.924-3.956 13.739v48.703c0 .97-.48 1.454-1.44 1.454h-2.733c-.96 0-1.439-.485-1.439-1.454V47.472c0-.97.48-1.454 1.439-1.454h2.734c.959 0 1.439.484 1.439 1.454v6.396c0 .291.071.437.215.437.144 0 .312-.097.504-.291 3.261-6.01 8.441-9.014 15.54-9.014zM245.147 120c-6.078 0-10.956-1.669-14.632-5.006-3.677-3.337-5.515-7.618-5.515-12.841v-.726c0-.967.49-1.45 1.47-1.45h2.648c.98 0 1.47.483 1.47 1.45v.726c0 3.676 1.324 6.771 3.97 9.286 2.648 2.515 6.177 3.773 10.59 3.773 4.313 0 7.744-1.282 10.293-3.845 2.55-2.564 3.824-5.925 3.824-10.085 0-2.998-.711-5.49-2.133-7.472a16.616 16.616 0 0 0-5.294-4.788c-2.108-1.21-4.975-2.54-8.603-3.99-3.725-1.548-6.813-3.048-9.264-4.499-2.451-1.45-4.51-3.434-6.177-5.949-1.667-2.515-2.5-5.755-2.5-9.721 0-5.804 1.79-10.399 5.368-13.785C234.24 47.693 238.97 46 244.852 46c5.981 0 10.76 1.741 14.34 5.224 3.578 3.482 5.367 7.98 5.367 13.494v.435c0 .967-.49 1.45-1.47 1.45h-2.5c-.981 0-1.471-.483-1.471-1.45v-.58c0-3.87-1.324-7.134-3.97-9.795-2.648-2.66-6.08-3.99-10.295-3.99-4.216 0-7.598 1.306-10.147 3.918-2.55 2.612-3.824 5.949-3.824 10.012 0 2.805.662 5.15 1.986 7.037a15.776 15.776 0 0 0 4.926 4.57c1.96 1.161 4.657 2.467 8.088 3.918 4.118 1.645 7.427 3.192 9.927 4.643 2.5 1.451 4.657 3.507 6.47 6.167 1.814 2.66 2.721 6.022 2.721 10.084 0 5.707-1.79 10.278-5.368 13.712-3.578 3.434-8.407 5.151-14.485 5.151zM282.538 119c-1.025 0-1.538-.478-1.538-1.434V48.434c0-.956.513-1.434 1.538-1.434h2.924c1.025 0 1.538.478 1.538 1.434v69.132c0 .956-.513 1.434-1.538 1.434h-2.924zM342.225 47.608c0-.966.482-1.45 1.444-1.45h2.887c.963 0 1.444.484 1.444 1.45v70.84c0 19.701-8.662 29.552-25.986 29.552-1.444 0-2.165-.483-2.165-1.449v-2.318c0-.965.625-1.448 1.876-1.448 7.219 0 12.44-2.077 15.664-6.23 3.224-4.152 4.836-10.285 4.836-18.397v-6.52c0-.29-.072-.434-.216-.434-.145 0-.313.097-.505.29-1.54 2.704-3.61 4.756-6.208 6.156-2.599 1.4-5.534 2.101-8.807 2.101-5.87 0-10.586-1.98-14.147-5.94-3.561-3.96-5.342-9.03-5.342-15.21V66.295c0-6.277 1.78-11.396 5.342-15.355 3.56-3.96 8.277-5.94 14.147-5.94 3.273 0 6.208.7 8.807 2.1 2.598 1.4 4.668 3.453 6.208 6.157.192.194.36.29.505.29.144 0 .216-.145.216-.434v-5.505zM327.79 114.68c4.234 0 7.7-1.521 10.394-4.564 2.695-3.042 4.042-6.977 4.042-11.806V66.44c0-4.83-1.347-8.765-4.042-11.807-2.695-3.043-6.16-4.564-10.394-4.564-4.427 0-8.06 1.521-10.9 4.564-2.84 3.042-4.259 6.977-4.259 11.806v31.87c0 4.83 1.42 8.765 4.26 11.807 2.838 3.043 6.472 4.564 10.899 4.564zM388.87 45.559c5.756 0 10.216 1.947 13.382 5.843C405.417 55.298 407 60.71 407 67.634v49.923c0 .962-.48 1.443-1.439 1.443h-2.734c-.959 0-1.439-.481-1.439-1.443V68.211c0-5.579-1.247-9.907-3.74-12.985-2.495-3.078-5.948-4.617-10.36-4.617-4.509 0-8.082 1.659-10.72 4.977-2.638 3.319-3.956 7.864-3.956 13.635v48.336c0 .962-.48 1.443-1.44 1.443h-2.733c-.96 0-1.439-.481-1.439-1.443V19.443c0-.962.48-1.443 1.439-1.443h2.734c.959 0 1.439.481 1.439 1.443V54.36c0 .289.071.433.215.433.144 0 .312-.096.504-.289 3.261-5.964 8.441-8.945 15.54-8.945zM448 50.21c0 .956-.471 1.433-1.414 1.433h-11.733c-.377 0-.565.191-.565.574v48.152c0 5.064.848 8.6 2.544 10.606 1.697 2.006 4.383 3.01 8.058 3.01h1.555c.942 0 1.414.477 1.414 1.432v2.15c0 .955-.472 1.433-1.414 1.433h-2.403c-4.995 0-8.788-1.242-11.38-3.726-2.591-2.484-3.887-7.118-3.887-13.901V52.217c0-.383-.189-.574-.566-.574h-5.795c-.943 0-1.414-.477-1.414-1.433v-1.72c0-.955.471-1.433 1.414-1.433h5.795c.377 0 .566-.19.566-.573v-16.05c0-.956.471-1.434 1.413-1.434h2.686c.943 0 1.414.478 1.414 1.433v16.051c0 .382.188.573.565.573h11.733c.943 0 1.414.478 1.414 1.433v1.72zM479.147 120c-6.078 0-10.956-1.669-14.632-5.006-3.677-3.337-5.515-7.618-5.515-12.841v-.726c0-.967.49-1.45 1.47-1.45h2.648c.98 0 1.47.483 1.47 1.45v.726c0 3.676 1.324 6.771 3.97 9.286 2.648 2.515 6.177 3.773 10.59 3.773 4.313 0 7.744-1.282 10.293-3.845 2.55-2.564 3.824-5.925 3.824-10.085 0-2.998-.711-5.49-2.133-7.472a16.616 16.616 0 0 0-5.294-4.788c-2.108-1.21-4.975-2.54-8.603-3.99-3.725-1.548-6.813-3.048-9.264-4.499-2.451-1.45-4.51-3.434-6.177-5.949-1.667-2.515-2.5-5.755-2.5-9.721 0-5.804 1.79-10.399 5.368-13.785C468.24 47.693 472.97 46 478.852 46c5.981 0 10.76 1.741 14.34 5.224 3.578 3.482 5.367 7.98 5.367 13.494v.435c0 .967-.49 1.45-1.47 1.45h-2.5c-.981 0-1.471-.483-1.471-1.45v-.58c0-3.87-1.324-7.134-3.97-9.795-2.648-2.66-6.08-3.99-10.295-3.99-4.216 0-7.598 1.306-10.147 3.918-2.55 2.612-3.824 5.949-3.824 10.012 0 2.805.662 5.15 1.986 7.037a15.776 15.776 0 0 0 4.926 4.57c1.96 1.161 4.657 2.467 8.088 3.918 4.118 1.645 7.427 3.192 9.927 4.643 2.5 1.451 4.657 3.507 6.47 6.167 1.814 2.66 2.721 6.022 2.721 10.084 0 5.707-1.79 10.278-5.368 13.712-3.578 3.434-8.407 5.151-14.485 5.151z"/></g><g transform="translate(16 18)"><path d="M51 0c28.167 0 51 22.833 51 51s-22.833 51-51 51S0 79.167 0 51 22.833 0 51 0zm0 6.611C26.485 6.611 6.611 26.485 6.611 51c0 24.515 19.874 44.389 44.389 44.389 24.515 0 44.389-19.874 44.389-44.389C95.389 26.485 75.515 6.611 51 6.611z"/><path d="M51 23.375c15.257 0 27.625 12.368 27.625 27.625S66.257 78.625 51 78.625 23.375 66.257 23.375 51 35.743 23.375 51 23.375zm.118 6.847c-11.54 0-20.896 9.356-20.896 20.896 0 11.54 9.356 20.896 20.896 20.896 11.54 0 20.896-9.355 20.896-20.896 0-11.54-9.355-20.896-20.896-20.896z"/><circle cx="72.958" cy="22.667" r="4.722"/></g></g></svg>