<svg class="icon" viewBox="0 0 1024 1024" xmlns="http://www.w3.org/2000/svg" width="256" height="256"><path d="m899.51 196.332-38.365-.597c-.92 0-86.925-1.79-175.753-36.302-91.103-35.434-149.817-76.13-150.36-76.51L511.92 66.862l-23.064 16.06c-.542.38-59.307 41.077-150.36 76.511-88.773 34.564-174.832 36.3-175.59 36.3l-38.58.599v374.245c0 187.908 252.099 386.562 387.645 386.562 135.6 0 387.702-198.654 387.702-386.562l-.164-374.245zM511.971 901.575c-112.593 0-332.082-178.687-332.082-331.001V250.538c31.744-2.17 103.694-10.092 178.737-39.286 76.89-29.953 132.78-63.811 153.4-77.052 22.137 14.381 76.4 47.1 153.235 77.052C740.576 240.5 812.69 248.37 844 250.538l.107 320.036c.001 152.314-219.542 331-332.134 331z" fill="#ea580c"/><path d="M743.236 548.392 594.613 696.853l-62.289-70.649c-10.202-11.504-27.73-12.59-39.232-2.495-11.557 10.2-12.642 27.728-2.442 39.232l81.827 92.842a27.708 27.708 0 0 0 19.967 9.333c.326.054.597.054.871.054 7.375 0 14.433-2.876 19.64-8.083l169.57-169.299c10.852-10.85 10.852-28.432.055-39.338-10.858-10.86-28.49-10.8-39.344-.058z" fill="#ea580c"/><path d="M591.246 598.79c12.59-12.967 28-26.534 40.968-37.276-18.61-19.806-41.24-35.706-66.471-46.718 30.388-23.441 50.3-59.906 50.3-101.147 0-70.81-57.625-128.438-128.437-128.438-70.81 0-128.438 57.625-128.438 128.438 0 41.132 19.805 77.434 50.03 100.93-70.81 30.495-120.57 100.924-120.57 182.807 0 15.357 12.427 27.783 27.783 27.783 15.355 0 27.78-12.427 27.78-27.783 0-79.06 64.3-143.412 143.414-143.412 40.807-.001 77.489 17.306 103.641 44.816zM487.608 340.776c40.152 0 72.875 32.72 72.875 72.873 0 40.154-32.725 72.82-72.875 72.82-40.153 0-72.874-32.666-72.874-72.82 0-40.153 32.721-72.873 72.874-72.873z" fill="#ea580c"/></svg>
