<svg class="icon" viewBox="0 0 1024 1024" xmlns="http://www.w3.org/2000/svg" width="256" height="256"><path d="M512 938.667c-234.667 0-426.667-192-426.667-426.667 0-234.667 192-426.667 426.667-426.667s426.667 192 426.667 426.667c0 234.667-192 426.667-426.667 426.667zM512 128c-211.2 0-384 172.8-384 384s172.8 384 384 384 384-172.8 384-384-172.8-384-384-384zm192 618.667c-12.8 0-21.333-10.667-21.333-21.334h-2.134C669.867 642.133 599.467 576 512 576c-87.467 0-157.867 66.133-168.533 149.333h-2.134c0 12.8-8.533 21.334-21.333 21.334-10.667 0-21.333-10.667-21.333-21.334 0-4.266 2.133-6.4 2.133-10.666 10.667-72.534 57.6-134.4 123.733-162.134-49.066-29.866-83.2-85.333-83.2-147.2 0-93.866 76.8-170.666 170.667-170.666s170.667 76.8 170.667 170.666c0 61.867-34.134 117.334-83.2 147.2 64 29.867 110.933 89.6 123.733 162.134 2.133 4.266 4.267 6.4 4.267 10.666-2.134 12.8-10.667 21.334-23.467 21.334zm-64-341.334c0-70.4-57.6-128-128-128s-128 57.6-128 128 57.6 128 128 128 128-57.6 128-128z" fill="#FFFFFF"/></svg>
