<svg width="16" height="21" fill="none" xmlns="http://www.w3.org/2000/svg"><defs><clipPath id="a"><path fill="#fff" fill-opacity="0" d="M0 0h16v20.807H0z"/></clipPath></defs><g clip-path="url(#a)"><path d="m3.16 3.28 3.07 3.73-1.14 1.58L4 7.26v6.39c0 .84.52 1.52 1.16 1.52h3.5v2.16h-3.5c-1.56 0-2.83-1.64-2.83-3.68V7.26l-1.1 1.33L.09 7.01l3.07-3.73zm7.67 2.35h-3.5V3.46h3.5c1.56 0 2.83 1.65 2.83 3.69v6.39l1.1-1.33 1.14 1.58-3.07 3.73-3.07-3.73 1.14-1.58 1.1 1.33V7.15c0-.84-.53-1.52-1.17-1.52z" fill="#536471"/></g></svg>