<svg width="74" height="74" fill="none" xmlns="http://www.w3.org/2000/svg"><defs><clipPath id="a"><path fill="#fff" fill-opacity="0" d="M0 0h74v74H0z"/></clipPath></defs><g clip-path="url(#a)"><path d="m62.08 18.5-12.35 1.48a.482.482 0 0 0-.4.33.5.5 0 0 0-.02.27c.02.09.07.17.13.24l3.68 3.54-13.98 14.01-6.32-6.32a.986.986 0 0 0-.7-.28.986.986 0 0 0-.7.28L11.49 51.98c-.04.05-.08.1-.1.17-.03.06-.04.12-.04.19 0 .06.01.13.04.19.02.06.06.11.1.16l2.8 2.81c.05.04.1.07.16.1a.582.582 0 0 0 .37 0c.06-.03.11-.06.16-.1l17.15-17.13 6.29 6.29c.1.09.21.16.33.2.12.05.24.07.37.07s.26-.02.38-.07c.12-.04.23-.11.32-.2l16.81-16.81 3.68 3.67c.06.07.14.11.23.13.1.02.19.02.28-.01.09-.03.16-.08.22-.16.06-.07.1-.15.11-.25l1.48-12.34a.636.636 0 0 0-.06-.18c-.04-.05-.08-.1-.13-.13a.417.417 0 0 0-.18-.08.278.278 0 0 0-.18 0z" fill="#43CD27"/></g></svg>
