<svg width="25" height="23" viewBox="0 0 25 23" fill="none" xmlns="http://www.w3.org/2000/svg">
<path d="M10.7089 1.60489C11.4443 0.12478 13.5557 0.124779 14.2911 1.60489L16.3137 5.67562C16.6049 6.26175 17.1645 6.6683 17.8119 6.76414L22.3084 7.42979C23.9433 7.67181 24.5958 9.67988 23.4153 10.8367L20.1689 14.0182C19.7014 14.4762 19.4877 15.1341 19.5966 15.7794L20.353 20.2615C20.6281 21.8912 18.9199 23.1323 17.455 22.3671L13.426 20.2627C12.8458 19.9596 12.1542 19.9596 11.574 20.2627L7.54505 22.3671C6.08011 23.1323 4.37194 21.8912 4.64698 20.2615L5.40341 15.7794C5.51233 15.1341 5.29859 14.4762 4.83114 14.0182L1.58466 10.8367C0.404235 9.67988 1.0567 7.67181 2.69162 7.42979L7.18811 6.76414C7.83555 6.6683 8.39512 6.26175 8.68634 5.67562L10.7089 1.60489Z" fill="url(#paint0_linear_1085_131)"/>
<defs>
<linearGradient id="paint0_linear_1085_131" x1="12.5" y1="-2" x2="12.5" y2="27" gradientUnits="userSpaceOnUse">
<stop stop-color="#FFD856"/>
<stop offset="1" stop-color="#EEA02E"/>
</linearGradient>
</defs>
</svg>
