<svg class="icon" viewBox="0 0 1024 1024" xmlns="http://www.w3.org/2000/svg" width="256" height="256"><path d="m512.104 720.238-213.55 155.631c-9.167 6.667-22.293 4.792-28.96-4.584-4.167-5.833-5-13.125-2.708-19.375l82.503-249.802-214.592-155.215c-9.375-6.667-11.459-19.792-4.583-28.96 4.375-6.25 11.667-9.166 18.75-8.541l261.886 1.458 81.462-252.51c2.916-8.75 11.042-14.376 19.792-14.376v576.274z" fill="#FBC02D"/><path d="M532.313 160.423 611.9 410.017l265.219-.417c11.459 0 20.834 9.167 20.834 20.626 0 7.5-4.167 14.167-10.209 17.917L675.027 600.858l82.295 252.093c3.542 10.834-2.291 22.71-13.333 26.251-7.084 2.292-14.584.625-19.793-3.958L512.73 719.82l-.625.417h-.208V143.964h.625c1.875 0 3.958.417 5.833 1.042a20.532 20.532 0 0 1 13.96 15.417z" fill="#F9A825"/></svg>