<svg width="42.000000" height="42.000000" viewBox="0 0 42 42" fill="none" xmlns="http://www.w3.org/2000/svg" xmlns:xlink="http://www.w3.org/1999/xlink">
	<desc>
			Created with Pixso.
	</desc>
	<defs>
		<clipPath id="clip96_43">
			<rect id="画板 1" width="42.000000" height="42.000000" transform="translate(0.000000 -0.001709)" fill="white" fill-opacity="0"/>
		</clipPath>
	</defs>
	<rect id="画板 1" width="42.000000" height="42.000000" transform="translate(0.000000 -0.001709)" fill="#FFFFFF" fill-opacity="1.000000"/>
	<g clip-path="url(#clip96_43)">
		<path id="path" d="M21 1C9.94 1 1 9.95 1 21C1 32.05 9.94 41 21 41C32.05 41 41 32.05 41 21C41 9.95 32.05 1 21 1ZM33.77 14.27L18.82 29.22L17.97 30.07C17.07 30.97 15.65 30.97 14.75 30.07L13.9 29.22L8.15 23.47C7.4 22.72 7.47 21.47 8.34 20.85C9.05 20.35 10.02 20.45 10.62 21.07L16.37 26.75L31.35 11.77C32.09 11.02 33.34 11.1 33.97 11.97C34.5 12.7 34.4 13.67 33.77 14.27Z" fill="#16C784" fill-opacity="1.000000" fill-rule="nonzero"/>
	</g>
</svg>
