<svg width="42" height="42" fill="none" xmlns="http://www.w3.org/2000/svg"><defs><clipPath id="a"><path transform="translate(0 -.002)" fill="#fff" fill-opacity="0" d="M0 0h42v42H0z"/></clipPath></defs><path fill="#FFF" d="M0-.002h42v42H0z"/><g clip-path="url(#a)"><path d="M21 1C9.94 1 1 9.95 1 21s8.94 20 20 20c11.05 0 20-8.95 20-20S32.05 1 21 1zm12.77 13.27L18.82 29.22l-.85.85c-.9.9-2.32.9-3.22 0l-.85-.85-5.75-5.75c-.75-.75-.68-2 .19-2.62.71-.5 1.68-.4 2.28.22l5.75 5.68 14.98-14.98c.74-.75 1.99-.67 2.62.2.53.73.43 1.7-.2 2.3z" fill="#00aa6e"/></g></svg>
