<svg width="32" height="32" fill="none" xmlns="http://www.w3.org/2000/svg"><g clip-path="url(#a)"><path d="M32 6.08c-1.173.533-2.453.853-3.733 1.067 1.386-.854 2.346-2.134 2.88-3.627a14.035 14.035 0 0 1-4.16 1.6c-1.174-1.28-2.88-2.027-4.8-2.027-3.627 0-6.507 2.987-6.507 6.614 0 .533 0 1.066.107 1.493-5.44-.427-10.347-2.987-13.547-7.04-.533 1.067-.96 2.133-.96 3.307 0 2.24 1.173 4.266 2.88 5.44a5.735 5.735 0 0 1-2.987-.854v.107c0 3.2 2.24 5.867 5.227 6.4-.533.107-1.067.213-1.707.213-.426 0-.853 0-1.28-.106.854 2.56 3.307 4.48 6.08 4.586-2.24 1.707-5.013 2.774-8.106 2.774-.534 0-1.067 0-1.6-.107 2.88 1.92 6.4 2.987 10.026 2.987 12.054 0 18.667-10.027 18.667-18.667v-.853A10.511 10.511 0 0 0 32 6.08z" fill="#536471"/></g><defs><clipPath id="a"><path fill="#fff" d="M0 0h32v32H0z"/></clipPath></defs></svg>