<svg class="icon" viewBox="0 0 1024 1024" xmlns="http://www.w3.org/2000/svg" width="256" height="256"><path d="M512 0C229.248 0 0 229.248 0 512c0 282.784 229.248 512 512 512 282.784 0 512-229.216 512-512S794.784 0 512 0zm-.352 991.68c-265.088 0-480-214.912-480-480.032s214.912-480 480-480c265.12 0 480.032 214.912 480.032 480 0 265.12-214.912 480.032-480.032 480.032zm-10.4-315.04c-8.32 0-15.36 2.88-21.088 8.608s-8.608 12.736-8.608 21.088 2.848 15.36 8.608 21.088S492.896 736 501.248 736s15.36-2.88 21.088-8.608 8.608-12.736 8.608-21.088a28.8 28.8 0 0 0-29.696-29.664zm10.624-398.752c-39.168 0-70.304 5.216-93.44 27.296S382.784 352 380.928 384h40.64c2.08 0 11.136-38.336 27.2-52.896s36.576-18.944 61.568-18.944 45.504 8.64 61.568 23.008c16 14.368 24.064 33.44 24.064 55.744 0 16.672-4.128 31.52-12.384 43.808s-22.208 25.184-42.016 38.304c-22.08 14.368-37.92 28.96-47.488 43.52-9.6 14.592-14.08 32.16-14.08 52.576V608h32v-32.928c0-17.504 8.416-31.712 15.712-42.656s23.52-22.976 43.968-36.096c22.048-14.176 39.744-29.856 50.688-47.04s17.024-37.024 17.024-59.52c0-32.064-11.776-58.752-35.84-80s-54.4-31.872-91.68-31.872z" fill="#cccccc"/></svg>
