<svg width="39" height="19" viewBox="0 0 39 19" fill="none" xmlns="http://www.w3.org/2000/svg">
<rect width="39" height="19" rx="8" fill="url(#paint0_linear_1348_413)"/>
<path d="M14.482 8.092V4.2H16.4V14H14.482V9.94H10.842V14H8.91V4.2H10.842V8.092H14.482ZM24.1005 13.132C23.3912 13.8413 22.5139 14.196 21.4685 14.196C20.4232 14.196 19.5459 13.8413 18.8365 13.132C18.1272 12.4227 17.7725 11.5453 17.7725 10.5C17.7725 9.464 18.1272 8.59133 18.8365 7.882C19.5552 7.16333 20.4325 6.804 21.4685 6.804C22.5045 6.804 23.3819 7.16333 24.1005 7.882C24.8192 8.60067 25.1785 9.47333 25.1785 10.5C25.1785 11.536 24.8192 12.4133 24.1005 13.132ZM20.1105 11.886C20.4745 12.25 20.9272 12.432 21.4685 12.432C22.0099 12.432 22.4625 12.25 22.8265 11.886C23.1905 11.522 23.3725 11.06 23.3725 10.5C23.3725 9.94 23.1905 9.478 22.8265 9.114C22.4625 8.75 22.0099 8.568 21.4685 8.568C20.9272 8.568 20.4745 8.75 20.1105 9.114C19.7559 9.48733 19.5785 9.94933 19.5785 10.5C19.5785 11.0507 19.7559 11.5127 20.1105 11.886ZM30.3027 7V8.736H28.7207V11.648C28.7207 11.8907 28.7813 12.068 28.9027 12.18C29.024 12.292 29.2013 12.3573 29.4347 12.376C29.668 12.3853 29.9573 12.3807 30.3027 12.362V14C29.08 14.14 28.2073 14.028 27.6847 13.664C27.1713 13.2907 26.9147 12.6187 26.9147 11.648V8.736H25.6967V7H26.9147V5.586L28.7207 5.04V7H30.3027Z" fill="white"/>
<defs>
<linearGradient id="paint0_linear_1348_413" x1="19.5" y1="0" x2="19.5" y2="19" gradientUnits="userSpaceOnUse">
<stop stop-color="#FFD856"/>
<stop offset="1" stop-color="#F44144"/>
</linearGradient>
</defs>
</svg>
